# xmcd
#
# Track frame offsets:
#	150
#	10961
#	21151
#	34664
#	44199
#	55161
#	63772
#	74612
#	85080
#	96385
#	107700
#	117455
#	127090
#	135857
#	147776
#
# Disc length: 2108 seconds
# Revision: 0
# Processed by: cddbd v1.5.2PL0 Copyright (c) Steve Scherf et al.
# Submitted via: dBpowerAMP V12.0
#
DISCID=d6083a0f
DTITLE=Waylon Jennings - 15 Memorable Songs
DYEAR=2008
DGENRE=Country
TTITLE0=The Only Daddy That Will Walk The Line
TTITLE1=Nine Pound Hammer
TTITLE2=Love The Common People
TTITLE3=Heartaches By The Number
TTITLE4=That's What You Het For Lovin' Me
TTITLE5=Abilene
TTITLE6=I've Got A Tiger By The Tail
TTITLE7=Lorena
TTITLE8=You're Gonna Wonder About Me
TTITLE9=Sally Was A Good Girl
TTITLE10=When Sin Stops
TTITLE11=Rhythm and Blues
TTITLE12=Love's Gonna Live Here
TTITLE13=Crying
TTITLE14=Foolin' Around
EXTD=
EXTT0=
EXTT1=
EXTT2=
EXTT3=
EXTT4=
EXTT5=
EXTT6=
EXTT7=
EXTT8=
EXTT9=
EXTT10=
EXTT11=
EXTT12=
EXTT13=
EXTT14=
PLAYORDER=
